<?xml version="1.0" encoding="utf-8"?>
<!-- Generator: Adobe Illustrator 17.1.0, SVG Export Plug-In . SVG Version: 6.00 Build 0)  -->
<!DOCTYPE svg PUBLIC "-//W3C//DTD SVG 1.1//EN" "http://www.w3.org/Graphics/SVG/1.1/DTD/svg11.dtd">
<svg version="1.1" id="Layer_1" xmlns="http://www.w3.org/2000/svg" xmlns:xlink="http://www.w3.org/1999/xlink" x="0px" y="0px"
	 viewBox="0 0 206.78 206.78" enable-background="new 0 0 206.78 206.78" xml:space="preserve">
<g>
	<path fill="#333333" d="M191.78,15v176.78H15V15H191.78 M206.78,0H0v206.78h206.78V0L206.78,0z"/>
	<g>
		<path fill="#333333" d="M165.017,101.528c4.971,4.232,7.456,10.721,7.456,19.482s-2.551,15.168-7.658,19.226
			c-5.111,4.058-12.905,6.089-23.387,6.089h-9.437v19.783h-15.824V95.186h25.059C152.116,95.186,160.047,97.304,165.017,101.528z
			 M153.4,129.431c1.891-2.13,2.84-5.243,2.84-9.334c0-4.091-1.234-7.002-3.703-8.727c-2.469-1.726-6.308-2.584-11.514-2.584h-9.033
			v23.841h10.655C147.921,132.627,151.505,131.562,153.4,129.431z"/>
		<path fill="#333333" d="M104.201,79.243v26.669c-7.428,8.323-17.719,12.44-30.965,12.44c-11.007,0-20.226-3.67-27.743-10.918
			c-7.428-7.339-11.187-16.556-11.187-27.653c0-11.187,3.759-20.494,11.455-27.922c7.607-7.428,16.825-11.187,27.564-11.187
			s20.136,3.579,28.101,10.65L92.745,63.94c-3.4-2.953-6.533-5.012-9.307-6.085c-2.864-1.163-5.906-1.7-9.218-1.7
			c-6.354,0-11.724,2.148-16.109,6.533c-4.385,4.296-6.533,10.023-6.533,17.093c0,7.07,2.058,12.797,6.265,17.003
			c4.206,4.296,9.218,6.444,15.035,6.444c5.728,0,10.56-1.163,14.498-3.311v-6.851h-9.218V79.243H104.201z"/>
	</g>
</g>
</svg>
